# xmcd CD database file
#
# Track frame offsets:
#	150
#	14897
#	32992
#	48315
#	66766
#	83968
#	101957
#	119492
#	136960
#	152974
#	169168
#	186767
#	209944
#	233760
#
# Disc length: 4440 seconds
#
# Revision: 1
# Processed by: cddbd v1.5.2PL0 Copyright (c) Steve Scherf et al.
# Submitted via: CDex 1.51
#
DISCID=d511560e
DTITLE=George Harrison - Cloud Nine [Bonus Track]
DYEAR=1987
DGENRE=Rock
TTITLE0=Cloud 9
TTITLE1=That's What It Takes
TTITLE2=Fish On The Sand
TTITLE3=Just For Today
TTITLE4=This Is Love
TTITLE5=When We Was Fab
TTITLE6=Devil's Radio
TTITLE7=Someplace Else
TTITLE8=Wreck Of The Hesperus
TTITLE9=Breath Away From Heaven
TTITLE10=Got My Mind Set On You
TTITLE11=Shanghai Surprise
TTITLE12=Zig Zag
TTITLE13=Unknown Tracks
EXTD=YEAR: 1987
EXTT0=
EXTT1=
EXTT2=
EXTT3=
EXTT4=
EXTT5=
EXTT6=
EXTT7=
EXTT8=
EXTT9=
EXTT10=
EXTT11=
EXTT12=
EXTT13=
PLAYORDER=
